<mxfile host="Electron" modified="2024-05-16T12:35:24.203Z" agent="Mozilla/5.0 (Windows NT 10.0; Win64; x64) AppleWebKit/537.36 (KHTML, like Gecko) draw.io/21.6.1 Chrome/112.0.5615.204 Electron/24.6.1 Safari/537.36" etag="_THKH-4phjNmnSTA8PX6" version="21.6.1" type="device">
  <diagram name="PÃ¡gina-1" id="_6TGcyd42zc6loi7AAFM">
    <mxGraphModel dx="915" dy="533" grid="1" gridSize="10" guides="1" tooltips="1" connect="1" arrows="1" fold="1" page="1" pageScale="1" pageWidth="1169" pageHeight="827" math="0" shadow="0">
      <root>
        <mxCell id="0" />
        <mxCell id="1" parent="0" />
        <mxCell id="o2e2sUvXSWCvMQpJ2uib-1" value="" style="shape=umlLifeline;perimeter=lifelinePerimeter;whiteSpace=wrap;html=1;container=1;dropTarget=0;collapsible=0;recursiveResize=0;outlineConnect=0;portConstraint=eastwest;newEdgeStyle={&quot;edgeStyle&quot;:&quot;elbowEdgeStyle&quot;,&quot;elbow&quot;:&quot;vertical&quot;,&quot;curved&quot;:0,&quot;rounded&quot;:0};participant=umlActor;" vertex="1" parent="1">
          <mxGeometry x="435" y="180" width="20" height="710" as="geometry" />
        </mxCell>
        <mxCell id="o2e2sUvXSWCvMQpJ2uib-2" value=":Cajero" style="shape=umlLifeline;perimeter=lifelinePerimeter;whiteSpace=wrap;html=1;container=1;dropTarget=0;collapsible=0;recursiveResize=0;outlineConnect=0;portConstraint=eastwest;newEdgeStyle={&quot;edgeStyle&quot;:&quot;elbowEdgeStyle&quot;,&quot;elbow&quot;:&quot;vertical&quot;,&quot;curved&quot;:0,&quot;rounded&quot;:0};" vertex="1" parent="1">
          <mxGeometry x="750" y="180" width="100" height="710" as="geometry" />
        </mxCell>
        <mxCell id="o2e2sUvXSWCvMQpJ2uib-10" value="" style="html=1;points=[];perimeter=orthogonalPerimeter;outlineConnect=0;targetShapes=umlLifeline;portConstraint=eastwest;newEdgeStyle={&quot;edgeStyle&quot;:&quot;elbowEdgeStyle&quot;,&quot;elbow&quot;:&quot;vertical&quot;,&quot;curved&quot;:0,&quot;rounded&quot;:0};" vertex="1" parent="o2e2sUvXSWCvMQpJ2uib-2">
          <mxGeometry x="45" y="260" width="10" height="80" as="geometry" />
        </mxCell>
        <mxCell id="o2e2sUvXSWCvMQpJ2uib-11" value="introducirPin(numPin: int)" style="html=1;verticalAlign=bottom;endArrow=block;edgeStyle=elbowEdgeStyle;elbow=vertical;curved=0;rounded=0;" edge="1" parent="o2e2sUvXSWCvMQpJ2uib-2">
          <mxGeometry relative="1" as="geometry">
            <mxPoint x="-300" y="270" as="sourcePoint" />
            <mxPoint x="45" y="270" as="targetPoint" />
          </mxGeometry>
        </mxCell>
        <mxCell id="o2e2sUvXSWCvMQpJ2uib-12" value="pinCorrecto" style="html=1;verticalAlign=bottom;endArrow=open;dashed=1;endSize=8;edgeStyle=elbowEdgeStyle;elbow=vertical;curved=0;rounded=0;" edge="1" source="o2e2sUvXSWCvMQpJ2uib-10" parent="o2e2sUvXSWCvMQpJ2uib-2">
          <mxGeometry relative="1" as="geometry">
            <mxPoint x="-300" y="335" as="targetPoint" />
          </mxGeometry>
        </mxCell>
        <mxCell id="o2e2sUvXSWCvMQpJ2uib-13" value="" style="html=1;points=[];perimeter=orthogonalPerimeter;outlineConnect=0;targetShapes=umlLifeline;portConstraint=eastwest;newEdgeStyle={&quot;edgeStyle&quot;:&quot;elbowEdgeStyle&quot;,&quot;elbow&quot;:&quot;vertical&quot;,&quot;curved&quot;:0,&quot;rounded&quot;:0};" vertex="1" parent="o2e2sUvXSWCvMQpJ2uib-2">
          <mxGeometry x="-310" y="260" width="10" height="80" as="geometry" />
        </mxCell>
        <mxCell id="o2e2sUvXSWCvMQpJ2uib-16" value="" style="html=1;points=[];perimeter=orthogonalPerimeter;outlineConnect=0;targetShapes=umlLifeline;portConstraint=eastwest;newEdgeStyle={&quot;edgeStyle&quot;:&quot;elbowEdgeStyle&quot;,&quot;elbow&quot;:&quot;vertical&quot;,&quot;curved&quot;:0,&quot;rounded&quot;:0};" vertex="1" parent="o2e2sUvXSWCvMQpJ2uib-2">
          <mxGeometry x="45" y="450" width="10" height="80" as="geometry" />
        </mxCell>
        <mxCell id="o2e2sUvXSWCvMQpJ2uib-17" value="solicitudAcceso()" style="html=1;verticalAlign=bottom;endArrow=block;edgeStyle=elbowEdgeStyle;elbow=vertical;curved=0;rounded=0;" edge="1" parent="o2e2sUvXSWCvMQpJ2uib-2">
          <mxGeometry relative="1" as="geometry">
            <mxPoint x="-300" y="460" as="sourcePoint" />
            <mxPoint x="45" y="460" as="targetPoint" />
          </mxGeometry>
        </mxCell>
        <mxCell id="o2e2sUvXSWCvMQpJ2uib-18" value="concederAcceso" style="html=1;verticalAlign=bottom;endArrow=open;dashed=1;endSize=8;edgeStyle=elbowEdgeStyle;elbow=vertical;curved=0;rounded=0;" edge="1" source="o2e2sUvXSWCvMQpJ2uib-16" parent="o2e2sUvXSWCvMQpJ2uib-2">
          <mxGeometry relative="1" as="geometry">
            <mxPoint x="-300" y="525" as="targetPoint" />
          </mxGeometry>
        </mxCell>
        <mxCell id="o2e2sUvXSWCvMQpJ2uib-19" value="" style="html=1;points=[];perimeter=orthogonalPerimeter;outlineConnect=0;targetShapes=umlLifeline;portConstraint=eastwest;newEdgeStyle={&quot;edgeStyle&quot;:&quot;elbowEdgeStyle&quot;,&quot;elbow&quot;:&quot;vertical&quot;,&quot;curved&quot;:0,&quot;rounded&quot;:0};" vertex="1" parent="o2e2sUvXSWCvMQpJ2uib-2">
          <mxGeometry x="-310" y="450" width="10" height="80" as="geometry" />
        </mxCell>
        <mxCell id="o2e2sUvXSWCvMQpJ2uib-5" value="" style="html=1;points=[];perimeter=orthogonalPerimeter;outlineConnect=0;targetShapes=umlLifeline;portConstraint=eastwest;newEdgeStyle={&quot;edgeStyle&quot;:&quot;elbowEdgeStyle&quot;,&quot;elbow&quot;:&quot;vertical&quot;,&quot;curved&quot;:0,&quot;rounded&quot;:0};" vertex="1" parent="1">
          <mxGeometry x="795" y="290" width="10" height="80" as="geometry" />
        </mxCell>
        <mxCell id="o2e2sUvXSWCvMQpJ2uib-6" value="insertarTarjeta(numTarjeta: String)" style="html=1;verticalAlign=bottom;endArrow=block;edgeStyle=elbowEdgeStyle;elbow=vertical;curved=0;rounded=0;" edge="1" parent="1">
          <mxGeometry relative="1" as="geometry">
            <mxPoint x="450" y="300" as="sourcePoint" />
            <mxPoint x="795" y="300" as="targetPoint" />
          </mxGeometry>
        </mxCell>
        <mxCell id="o2e2sUvXSWCvMQpJ2uib-7" value="tarjetaInsertada" style="html=1;verticalAlign=bottom;endArrow=open;dashed=1;endSize=8;edgeStyle=elbowEdgeStyle;elbow=vertical;curved=0;rounded=0;" edge="1" source="o2e2sUvXSWCvMQpJ2uib-5" parent="1">
          <mxGeometry relative="1" as="geometry">
            <mxPoint x="450" y="365" as="targetPoint" />
          </mxGeometry>
        </mxCell>
        <mxCell id="o2e2sUvXSWCvMQpJ2uib-8" value="" style="html=1;points=[];perimeter=orthogonalPerimeter;outlineConnect=0;targetShapes=umlLifeline;portConstraint=eastwest;newEdgeStyle={&quot;edgeStyle&quot;:&quot;elbowEdgeStyle&quot;,&quot;elbow&quot;:&quot;vertical&quot;,&quot;curved&quot;:0,&quot;rounded&quot;:0};" vertex="1" parent="1">
          <mxGeometry x="440" y="290" width="10" height="80" as="geometry" />
        </mxCell>
        <mxCell id="o2e2sUvXSWCvMQpJ2uib-9" value="Cliente" style="text;html=1;align=center;verticalAlign=middle;resizable=0;points=[];autosize=1;strokeColor=none;fillColor=none;" vertex="1" parent="1">
          <mxGeometry x="415" y="210" width="60" height="30" as="geometry" />
        </mxCell>
        <mxCell id="o2e2sUvXSWCvMQpJ2uib-14" value="loop[1,3]" style="shape=umlFrame;whiteSpace=wrap;html=1;pointerEvents=0;" vertex="1" parent="1">
          <mxGeometry x="420" y="400" width="400" height="150" as="geometry" />
        </mxCell>
        <mxCell id="o2e2sUvXSWCvMQpJ2uib-15" value="[!pinCorrecto]" style="text;html=1;align=center;verticalAlign=middle;resizable=0;points=[];autosize=1;strokeColor=none;fillColor=none;" vertex="1" parent="1">
          <mxGeometry x="725" y="400" width="100" height="30" as="geometry" />
        </mxCell>
        <mxCell id="o2e2sUvXSWCvMQpJ2uib-22" value="Interaction heading" style="shape=umlFrame;whiteSpace=wrap;html=1;pointerEvents=0;recursiveResize=0;container=1;collapsible=0;width=170;" vertex="1" parent="1">
          <mxGeometry x="420" y="570" width="400" height="310" as="geometry" />
        </mxCell>
        <mxCell id="o2e2sUvXSWCvMQpJ2uib-23" value="[pinCorrecto]" style="text;html=1;" vertex="1" parent="o2e2sUvXSWCvMQpJ2uib-22">
          <mxGeometry width="100" height="20" relative="1" as="geometry">
            <mxPoint x="30" y="30" as="offset" />
          </mxGeometry>
        </mxCell>
        <mxCell id="o2e2sUvXSWCvMQpJ2uib-24" value="[!pinCorrecto]" style="line;strokeWidth=1;dashed=1;labelPosition=center;verticalLabelPosition=bottom;align=left;verticalAlign=top;spacingLeft=20;spacingTop=15;html=1;whiteSpace=wrap;" vertex="1" parent="o2e2sUvXSWCvMQpJ2uib-22">
          <mxGeometry y="150" width="400" height="10" as="geometry" />
        </mxCell>
        <mxCell id="o2e2sUvXSWCvMQpJ2uib-25" value="" style="html=1;points=[];perimeter=orthogonalPerimeter;outlineConnect=0;targetShapes=umlLifeline;portConstraint=eastwest;newEdgeStyle={&quot;edgeStyle&quot;:&quot;elbowEdgeStyle&quot;,&quot;elbow&quot;:&quot;vertical&quot;,&quot;curved&quot;:0,&quot;rounded&quot;:0};" vertex="1" parent="o2e2sUvXSWCvMQpJ2uib-22">
          <mxGeometry x="372.5" y="210" width="10" height="80" as="geometry" />
        </mxCell>
        <mxCell id="o2e2sUvXSWCvMQpJ2uib-26" value="solicitudAcceso()" style="html=1;verticalAlign=bottom;endArrow=block;edgeStyle=elbowEdgeStyle;elbow=vertical;curved=0;rounded=0;" edge="1" parent="o2e2sUvXSWCvMQpJ2uib-22">
          <mxGeometry relative="1" as="geometry">
            <mxPoint x="27.5" y="220" as="sourcePoint" />
            <mxPoint x="372.5" y="220" as="targetPoint" />
          </mxGeometry>
        </mxCell>
        <mxCell id="o2e2sUvXSWCvMQpJ2uib-27" value="denegarAcceso" style="html=1;verticalAlign=bottom;endArrow=open;dashed=1;endSize=8;edgeStyle=elbowEdgeStyle;elbow=vertical;curved=0;rounded=0;" edge="1" source="o2e2sUvXSWCvMQpJ2uib-25" parent="o2e2sUvXSWCvMQpJ2uib-22">
          <mxGeometry relative="1" as="geometry">
            <mxPoint x="27.5" y="285" as="targetPoint" />
          </mxGeometry>
        </mxCell>
        <mxCell id="o2e2sUvXSWCvMQpJ2uib-28" value="" style="html=1;points=[];perimeter=orthogonalPerimeter;outlineConnect=0;targetShapes=umlLifeline;portConstraint=eastwest;newEdgeStyle={&quot;edgeStyle&quot;:&quot;elbowEdgeStyle&quot;,&quot;elbow&quot;:&quot;vertical&quot;,&quot;curved&quot;:0,&quot;rounded&quot;:0};" vertex="1" parent="o2e2sUvXSWCvMQpJ2uib-22">
          <mxGeometry x="17.5" y="210" width="10" height="80" as="geometry" />
        </mxCell>
      </root>
    </mxGraphModel>
  </diagram>
</mxfile>
